<svg xmlns="http://www.w3.org/2000/svg" version="1.1" xmlns:xlink="http://www.w3.org/1999/xlink" xmlns:svgjs="http://svgjs.dev/svgjs" width="1000" height="1000" viewBox="0 0 1000 1000"><rect width="1000" height="1000" fill="#ffffff"></rect><g transform="matrix(0.7,0,0,0.7,149.57575757575756,300.26474500803977)"><svg viewBox="0 0 396 226" data-background-color="#ffffff" preserveAspectRatio="xMidYMid meet" height="570" width="1000" xmlns="http://www.w3.org/2000/svg" xmlns:xlink="http://www.w3.org/1999/xlink"><g id="tight-bounds" transform="matrix(1,0,0,1,0.2400000000000091,0.13325220095991597)"><svg viewBox="0 0 395.52 225.73349559808017" height="225.73349559808017" width="395.52"><g><svg viewBox="0 0 395.52 225.73349559808017" height="225.73349559808017" width="395.52"><g><svg viewBox="0 0 395.52 225.73349559808017" height="225.73349559808017" width="395.52"><g transform="matrix(1,0,0,1,0,136.9002687864094)"><svg viewBox="0 0 395.52 88.83322681167076" height="88.83322681167076" width="395.52"><g id="textblocktransform"><svg viewBox="0 0 395.52 88.83322681167076" height="88.83322681167076" width="395.52" id="textblock"><g><svg viewBox="0 0 395.52 59.865252430066654" height="59.865252430066654" width="395.52"><g transform="matrix(1,0,0,1,0,0)"><svg width="395.52" viewBox="1.65 -35.65 241.37924446254672 36.3" height="59.865252430066654" data-palette-color="#f71a2f"><g transform="matrix(1,0,0,1,0,0)"><g><svg width="4.557315289091704" viewBox="3.16 -36.36 28.68 36.36" height="5.7791837226376535" data-palette-color="#f71a2f" id="scriptelement" x="235.10304681800088" y="-32.892051861318826"><path d="M10.85 0L3.16 0 3.16-36.36 17.51-36.36Q21.63-36.36 24.55-34.9 27.47-33.43 29-30.76 30.54-28.09 30.54-24.49L30.54-24.49Q30.54-20.86 28.98-18.26 27.41-15.66 24.46-14.28 21.5-12.89 17.31-12.89L17.31-12.89 7.71-12.89 7.71-19.07 16.07-19.07Q18.27-19.07 19.73-19.67 21.18-20.28 21.9-21.48 22.62-22.69 22.62-24.49L22.62-24.49Q22.62-26.3 21.9-27.54 21.18-28.78 19.72-29.43 18.25-30.08 16.03-30.08L16.03-30.08 10.85-30.08 10.85 0ZM14.51-16.55L22.8-16.55 31.84 0 23.35 0 14.51-16.55Z" opacity="1" transform="matrix(1,0,0,1,0,0)" fill="#000000" class="undefined-123" data-fill-palette-color="primary" id="yy-123"></path></svg></g></g><path d="M231.734-30.002C231.734-33.122 234.263-35.65 237.382-35.65 240.501-35.65 243.029-33.122 243.029-30.002 243.029-26.883 240.501-24.355 237.382-24.355 234.263-24.355 231.734-26.883 231.734-30.002ZM237.382-24.908C240.195-24.908 242.476-27.189 242.476-30.002 242.476-32.816 240.195-35.097 237.382-35.097 234.568-35.097 232.287-32.816 232.287-30.002 232.287-27.189 234.568-24.908 237.382-24.908Z" fill="#000000" id="scriptcircle" data-fill-palette-color="primary"></path><path d="M19.4 0L3 0 3-7.75 17.9-7.75Q18.85-7.75 19.53-8.15 20.2-8.55 20.6-9.25 21-9.95 21-10.75L21-10.75Q21-11.6 20.6-12.3 20.2-13 19.53-13.4 18.85-13.8 17.9-13.8L17.9-13.8 12.95-13.8Q9.8-13.8 7.25-15.05 4.7-16.3 3.18-18.63 1.65-20.95 1.65-24.25L1.65-24.25Q1.65-27.5 3.1-29.9 4.55-32.3 7-33.65 9.45-35 12.45-35L12.45-35 28.15-35 28.15-27.25 13.65-27.25Q12.85-27.25 12.23-26.88 11.6-26.5 11.25-25.9 10.9-25.3 10.9-24.55L10.9-24.55Q10.9-23.8 11.25-23.18 11.6-22.55 12.23-22.18 12.85-21.8 13.65-21.8L13.65-21.8 18.9-21.8Q22.4-21.8 24.95-20.5 27.5-19.2 28.9-16.88 30.3-14.55 30.3-11.4L30.3-11.4Q30.3-7.8 28.83-5.23 27.35-2.65 24.88-1.33 22.4 0 19.4 0L19.4 0ZM41.8 0L31.85 0 43.1-30.75Q44.05-33.2 46.1-34.43 48.15-35.65 50.75-35.65L50.75-35.65Q53.35-35.65 55.42-34.45 57.5-33.25 58.4-30.8L58.4-30.8 69.65 0 59.4 0 57.35-6.4 43.95-6.4 41.8 0ZM50.25-26.65L46.2-14 55.15-14 51.3-26.65Q51.25-26.85 51.1-26.95 50.95-27.05 50.75-27.05L50.75-27.05Q50.6-27.05 50.47-26.95 50.35-26.85 50.25-26.65L50.25-26.65ZM97.15 0.65L97.15 0.65Q94 0.65 91.32-0.73 88.65-2.1 87.05-4.58 85.45-7.05 85.45-10.45L85.45-10.45 85.45-24.85Q85.45-25.6 85.12-26.18 84.8-26.75 84.25-27.05 83.7-27.35 83-27.35L83-27.35Q82.3-27.35 81.75-27.05 81.2-26.75 80.85-26.18 80.5-25.6 80.5-24.85L80.5-24.85 80.5 0 71.25 0 71.25-24.5Q71.25-27.9 72.85-30.4 74.45-32.9 77.12-34.27 79.8-35.65 83-35.65L83-35.65Q86.2-35.65 88.85-34.27 91.5-32.9 93.1-30.4 94.7-27.9 94.7-24.5L94.7-24.5 94.7-10.1Q94.7-9.35 95.05-8.78 95.4-8.2 95.95-7.88 96.5-7.55 97.15-7.55L97.15-7.55Q97.8-7.55 98.37-7.88 98.95-8.2 99.3-8.78 99.65-9.35 99.65-10.1L99.65-10.1 99.65-35 108.9-35 108.9-10.45Q108.9-7.05 107.3-4.58 105.7-2.1 103.02-0.73 100.35 0.65 97.15 0.65ZM123.49 0L113.94 0 113.94-35 123.49-35 123.49-21.2 128.44-21.2Q129.74-21.2 130.77-21.75 131.79-22.3 132.39-23.38 132.99-24.45 132.99-25.95L132.99-25.95 132.99-35 142.54-35 142.54-25.8Q142.54-22.6 141.02-20 139.49-17.4 136.94-15.75L136.94-15.75 140.34-8.55Q140.59-8.1 140.99-7.85 141.39-7.6 141.94-7.6L141.94-7.6 144.84-7.6 144.84 0 139.54 0Q136.59 0 134.79-1.1 132.99-2.2 132.04-4.05L132.04-4.05 127.54-13.5Q127.24-13.5 126.94-13.5 126.64-13.5 126.34-13.5L126.34-13.5 123.49-13.5 123.49 0ZM154.74 0L144.79 0 156.04-30.75Q156.99-33.2 159.04-34.43 161.09-35.65 163.69-35.65L163.69-35.65Q166.29-35.65 168.37-34.45 170.44-33.25 171.34-30.8L171.34-30.8 182.59 0 172.34 0 170.29-6.4 156.89-6.4 154.74 0ZM163.19-26.65L159.14-14 168.09-14 164.24-26.65Q164.19-26.85 164.04-26.95 163.89-27.05 163.69-27.05L163.69-27.05Q163.54-27.05 163.42-26.95 163.29-26.85 163.19-26.65L163.19-26.65ZM202.64 0L198.79 0Q195.54 0 193.01-1.43 190.49-2.85 189.06-5.3 187.64-7.75 187.64-10.8L187.64-10.8 187.64-27.25 178.34-27.25 178.34-35 206.34-35 206.34-27.25 197.19-27.25 197.19-10.15Q197.19-9.15 197.89-8.45 198.59-7.75 199.54-7.75L199.54-7.75 202.64-7.75 202.64 0ZM230.09 0L209.04 0 209.04-7.75 214.74-7.75 214.74-27.25 209.04-27.25 209.04-35 230.09-35 230.09-27.25 224.34-27.25 224.34-7.75 230.09-7.75 230.09 0Z" opacity="1" transform="matrix(1,0,0,1,0,0)" fill="#000000" class="wordmark-text-0" data-fill-palette-color="primary" id="text-0"></path></svg></g></svg></g><g transform="matrix(1,0,0,1,85.04422861393112,73.99800176274707)"><svg viewBox="0 0 181.9392 14.835225048923679" height="14.835225048923679" width="181.9392"><g transform="matrix(1,0,0,1,0,0)"><svg width="181.9392" viewBox="1.95 -37 459.86 37.5" height="14.835225048923679" data-palette-color="#037b11"><path d="M14.8 0.5L14.8 0.5Q11.2 0.5 8.4-0.5 5.6-1.5 3.05-3.8L3.05-3.8Q2.5-4.2 2.23-4.78 1.95-5.35 1.95-5.95L1.95-5.95Q1.95-6.9 2.65-7.65 3.35-8.4 4.4-8.4L4.4-8.4Q5.2-8.4 5.9-7.85L5.9-7.85Q7.8-6.1 9.88-5.2 11.95-4.3 14.75-4.3L14.75-4.3Q16.75-4.3 18.43-4.95 20.1-5.6 21.1-6.7 22.1-7.8 22.1-9.25L22.1-9.25Q22.1-11.05 21.08-12.23 20.05-13.4 18.13-14.18 16.2-14.95 13.5-15.5L13.5-15.5Q11-15.95 9.03-16.75 7.05-17.55 5.65-18.78 4.25-20 3.5-21.7 2.75-23.4 2.75-25.65L2.75-25.65Q2.75-28.7 4.35-30.9 5.95-33.1 8.7-34.3 11.45-35.5 14.9-35.5L14.9-35.5Q18.05-35.5 20.8-34.52 23.55-33.55 25.25-31.9L25.25-31.9Q26.45-30.85 26.45-29.65L26.45-29.65Q26.45-28.75 25.73-27.98 25-27.2 24.05-27.2L24.05-27.2Q23.35-27.2 22.85-27.6L22.85-27.6Q22.05-28.45 20.7-29.13 19.35-29.8 17.82-30.25 16.3-30.7 14.9-30.7L14.9-30.7Q12.65-30.7 11.05-30.08 9.45-29.45 8.6-28.38 7.75-27.3 7.75-25.85L7.75-25.85Q7.75-24.15 8.72-23.05 9.7-21.95 11.45-21.28 13.2-20.6 15.45-20.05L15.45-20.05Q18.2-19.45 20.38-18.7 22.55-17.95 24.05-16.78 25.55-15.6 26.35-13.85 27.15-12.1 27.15-9.5L27.15-9.5Q27.15-6.5 25.45-4.25 23.75-2 20.98-0.75 18.2 0.5 14.8 0.5ZM44.75 0.5L44.75 0.5Q40.65 0.5 37.57-1.23 34.5-2.95 32.82-5.98 31.15-9 31.15-12.9L31.15-12.9Q31.15-17.3 32.92-20.43 34.7-23.55 37.57-25.23 40.45-26.9 43.65-26.9L43.65-26.9Q46.05-26.9 48.27-25.93 50.5-24.95 52.2-23.23 53.9-21.5 54.9-19.18 55.9-16.85 55.95-14.1L55.95-14.1Q55.9-13.1 55.15-12.45 54.4-11.8 53.4-11.8L53.4-11.8 34-11.8 32.8-16.05 51.6-16.05 50.65-15.15 50.65-16.4Q50.5-18.15 49.45-19.48 48.4-20.8 46.87-21.53 45.35-22.25 43.65-22.25L43.65-22.25Q42.15-22.25 40.75-21.78 39.35-21.3 38.3-20.25 37.25-19.2 36.6-17.48 35.95-15.75 35.95-13.2L35.95-13.2Q35.95-10.45 37.1-8.4 38.25-6.35 40.2-5.23 42.15-4.1 44.55-4.1L44.55-4.1Q46.35-4.1 47.55-4.48 48.75-4.85 49.55-5.4 50.35-5.95 50.95-6.45L50.95-6.45Q51.75-6.9 52.45-6.9L52.45-6.9Q53.35-6.9 53.95-6.28 54.55-5.65 54.55-4.8L54.55-4.8Q54.55-3.7 53.45-2.8L53.45-2.8Q52.1-1.5 49.72-0.5 47.35 0.5 44.75 0.5ZM73.34 0.5L73.34 0.5Q69.25 0.5 66.17-1.23 63.09-2.95 61.42-5.98 59.74-9 59.74-12.9L59.74-12.9Q59.74-17.3 61.52-20.43 63.3-23.55 66.17-25.23 69.05-26.9 72.25-26.9L72.25-26.9Q74.64-26.9 76.87-25.93 79.09-24.95 80.8-23.23 82.5-21.5 83.5-19.18 84.5-16.85 84.55-14.1L84.55-14.1Q84.5-13.1 83.75-12.45 83-11.8 82-11.8L82-11.8 62.59-11.8 61.39-16.05 80.19-16.05 79.25-15.15 79.25-16.4Q79.09-18.15 78.05-19.48 77-20.8 75.47-21.53 73.94-22.25 72.25-22.25L72.25-22.25Q70.75-22.25 69.34-21.78 67.94-21.3 66.89-20.25 65.84-19.2 65.19-17.48 64.55-15.75 64.55-13.2L64.55-13.2Q64.55-10.45 65.69-8.4 66.84-6.35 68.8-5.23 70.75-4.1 73.14-4.1L73.14-4.1Q74.94-4.1 76.14-4.48 77.34-4.85 78.14-5.4 78.94-5.95 79.55-6.45L79.55-6.45Q80.34-6.9 81.05-6.9L81.05-6.9Q81.94-6.9 82.55-6.28 83.14-5.65 83.14-4.8L83.14-4.8Q83.14-3.7 82.05-2.8L82.05-2.8Q80.69-1.5 78.32-0.5 75.94 0.5 73.34 0.5ZM111.29-37L111.29-37Q112.34-37 113.07-36.3 113.79-35.6 113.79-34.45L113.79-34.45 113.79-2.55Q113.79-1.45 113.07-0.73 112.34 0 111.29 0L111.29 0Q110.19 0 109.49-0.73 108.79-1.45 108.79-2.55L108.79-2.55 108.79-6.15 109.79-6.1Q109.79-5.2 109.07-4.08 108.34-2.95 107.09-1.9 105.84-0.85 104.14-0.18 102.44 0.5 100.49 0.5L100.49 0.5Q97.09 0.5 94.32-1.28 91.54-3.05 89.94-6.13 88.34-9.2 88.34-13.2L88.34-13.2Q88.34-17.2 89.94-20.28 91.54-23.35 94.27-25.13 96.99-26.9 100.34-26.9L100.34-26.9Q102.44-26.9 104.27-26.2 106.09-25.5 107.44-24.4 108.79-23.3 109.57-22.08 110.34-20.85 110.34-19.75L110.34-19.75 108.79-19.6 108.79-34.45Q108.79-35.55 109.49-36.27 110.19-37 111.29-37ZM101.09-4.1L101.09-4.1Q103.44-4.1 105.22-5.3 106.99-6.5 107.99-8.55 108.99-10.6 108.99-13.2L108.99-13.2Q108.99-15.8 107.99-17.85 106.99-19.9 105.22-21.1 103.44-22.3 101.09-22.3L101.09-22.3Q98.79-22.3 96.99-21.1 95.19-19.9 94.19-17.85 93.19-15.8 93.19-13.2L93.19-13.2Q93.19-10.6 94.19-8.55 95.19-6.5 96.99-5.3 98.79-4.1 101.09-4.1ZM119.19-4.1L119.19-4.1Q118.74-4.8 118.79-5.73 118.84-6.65 119.84-7.3L119.84-7.3Q120.54-7.75 121.31-7.68 122.09-7.6 122.79-6.9L122.79-6.9Q124.19-5.35 125.91-4.45 127.64-3.55 130.09-3.55L130.09-3.55Q131.09-3.6 132.14-3.88 133.19-4.15 133.94-4.88 134.69-5.6 134.69-7L134.69-7Q134.69-8.25 133.89-9 133.09-9.75 131.79-10.23 130.49-10.7 128.99-11.1L128.99-11.1Q127.39-11.55 125.77-12.1 124.14-12.65 122.84-13.53 121.54-14.4 120.71-15.8 119.89-17.2 119.89-19.25L119.89-19.25Q119.89-21.6 121.21-23.3 122.54-25 124.66-25.95 126.79-26.9 129.29-26.9L129.29-26.9Q130.74-26.9 132.34-26.53 133.94-26.15 135.44-25.35 136.94-24.55 138.04-23.25L138.04-23.25Q138.54-22.6 138.62-21.7 138.69-20.8 137.79-20.1L137.79-20.1Q137.19-19.6 136.34-19.65 135.49-19.7 134.94-20.2L134.94-20.2Q133.99-21.4 132.49-22.08 130.99-22.75 129.09-22.75L129.09-22.75Q128.14-22.75 127.11-22.48 126.09-22.2 125.39-21.5 124.69-20.8 124.69-19.45L124.69-19.45Q124.69-18.2 125.52-17.45 126.34-16.7 127.69-16.2 129.04-15.7 130.64-15.3L130.64-15.3Q132.19-14.9 133.72-14.35 135.24-13.8 136.47-12.93 137.69-12.05 138.47-10.68 139.24-9.3 139.24-7.2L139.24-7.2Q139.24-4.75 137.81-3.03 136.39-1.3 134.22-0.4 132.04 0.5 129.64 0.5L129.64 0.5Q126.79 0.5 123.96-0.53 121.14-1.55 119.19-4.1ZM183.53-13.15L183.53-13.15Q183.53-9.15 181.76-6.08 179.99-3 176.99-1.25 173.98 0.5 170.23 0.5L170.23 0.5Q166.53 0.5 163.51-1.25 160.48-3 158.71-6.08 156.94-9.15 156.94-13.15L156.94-13.15Q156.94-17.2 158.71-20.28 160.48-23.35 163.51-25.13 166.53-26.9 170.23-26.9L170.23-26.9Q173.98-26.9 176.99-25.13 179.99-23.35 181.76-20.28 183.53-17.2 183.53-13.15ZM178.53-13.15L178.53-13.15Q178.53-15.9 177.44-17.93 176.34-19.95 174.46-21.13 172.59-22.3 170.23-22.3L170.23-22.3Q167.94-22.3 166.06-21.13 164.19-19.95 163.06-17.93 161.94-15.9 161.94-13.15L161.94-13.15Q161.94-10.5 163.06-8.45 164.19-6.4 166.06-5.25 167.94-4.1 170.23-4.1L170.23-4.1Q172.59-4.1 174.46-5.25 176.34-6.4 177.44-8.45 178.53-10.5 178.53-13.15ZM201.18-36.95L201.18-36.95Q202.13-36.95 203.13-36.7 204.13-36.45 204.81-35.88 205.48-35.3 205.48-34.3L205.48-34.3Q205.48-33.3 204.88-32.68 204.28-32.05 203.48-32.05L203.48-32.05Q202.98-32.05 202.13-32.27 201.28-32.5 200.43-32.5L200.43-32.5Q199.28-32.5 198.58-31.98 197.88-31.45 197.58-30.68 197.28-29.9 197.28-29.15L197.28-29.15 197.28-2.55Q197.28-1.45 196.56-0.73 195.83 0 194.78 0L194.78 0Q193.68 0 192.98-0.73 192.28-1.45 192.28-2.55L192.28-2.55 192.28-29.1Q192.28-32.55 194.56-34.75 196.83-36.95 201.18-36.95ZM189.23-25.85L202.18-25.85Q203.18-25.85 203.83-25.2 204.48-24.55 204.48-23.55L204.48-23.55Q204.48-22.55 203.83-21.9 203.18-21.25 202.18-21.25L202.18-21.25 189.23-21.25Q188.28-21.25 187.61-21.9 186.93-22.55 186.93-23.55L186.93-23.55Q186.93-24.55 187.61-25.2 188.28-25.85 189.23-25.85L189.23-25.85ZM234.63 0.5L234.63 0.5Q230.53 0.5 227.45-1.23 224.38-2.95 222.7-5.98 221.03-9 221.03-12.9L221.03-12.9Q221.03-17.3 222.8-20.43 224.58-23.55 227.45-25.23 230.33-26.9 233.53-26.9L233.53-26.9Q235.93-26.9 238.15-25.93 240.38-24.95 242.08-23.23 243.78-21.5 244.78-19.18 245.78-16.85 245.83-14.1L245.83-14.1Q245.78-13.1 245.03-12.45 244.28-11.8 243.28-11.8L243.28-11.8 223.88-11.8 222.68-16.05 241.48-16.05 240.53-15.15 240.53-16.4Q240.38-18.15 239.33-19.48 238.28-20.8 236.75-21.53 235.23-22.25 233.53-22.25L233.53-22.25Q232.03-22.25 230.63-21.78 229.23-21.3 228.18-20.25 227.13-19.2 226.48-17.48 225.83-15.75 225.83-13.2L225.83-13.2Q225.83-10.45 226.98-8.4 228.13-6.35 230.08-5.23 232.03-4.1 234.43-4.1L234.43-4.1Q236.23-4.1 237.43-4.48 238.63-4.85 239.43-5.4 240.23-5.95 240.83-6.45L240.83-6.45Q241.63-6.9 242.33-6.9L242.33-6.9Q243.23-6.9 243.83-6.28 244.43-5.65 244.43-4.8L244.43-4.8Q244.43-3.7 243.33-2.8L243.33-2.8Q241.98-1.5 239.6-0.5 237.23 0.5 234.63 0.5ZM251.23-26.45L251.23-26.45Q252.48-26.45 253.28-25.4L253.28-25.4 270.33-3.9Q270.88-3.25 270.88-2.4L270.88-2.4Q270.88-1.4 270.08-0.65 269.28 0.1 268.33 0.1L268.33 0.1Q267.13 0.1 266.28-0.95L266.28-0.95 249.23-22.45Q248.68-23.1 248.68-23.95L248.68-23.95Q248.68-25 249.45-25.73 250.23-26.45 251.23-26.45ZM251.28 0.1L251.28 0.1Q250.43 0.1 249.63-0.55 248.83-1.2 248.83-2.15L248.83-2.15Q248.83-3 249.43-3.7L249.43-3.7 257.38-13.55 259.93-9.45 253.28-0.95Q252.48 0.1 251.28 0.1ZM268.28-26.45L268.28-26.45Q269.33-26.45 270-25.78 270.68-25.1 270.68-24.2L270.68-24.2Q270.68-23.8 270.55-23.38 270.43-22.95 270.08-22.6L270.08-22.6 262.23-12.75 259.63-16.45 266.28-25.3Q267.13-26.45 268.28-26.45ZM286.67-26.9L286.67-26.9Q289.37-26.9 291.45-26.33 293.52-25.75 294.72-24.73 295.92-23.7 295.92-22.35L295.92-22.35Q295.92-21.5 295.4-20.78 294.87-20.05 293.92-20.05L293.92-20.05Q293.17-20.05 292.7-20.3 292.22-20.55 291.82-20.9 291.42-21.25 290.82-21.6L290.82-21.6Q290.27-21.9 289.2-22.1 288.12-22.3 287.27-22.3L287.27-22.3Q284.62-22.3 282.7-21.1 280.77-19.9 279.7-17.85 278.62-15.8 278.62-13.2L278.62-13.2Q278.62-10.6 279.7-8.55 280.77-6.5 282.65-5.3 284.52-4.1 287.02-4.1L287.02-4.1Q288.52-4.1 289.5-4.33 290.47-4.55 291.12-4.9L291.12-4.9Q291.92-5.35 292.42-5.83 292.92-6.3 293.87-6.3L293.87-6.3Q294.97-6.3 295.55-5.63 296.12-4.95 296.12-3.95L296.12-3.95Q296.12-2.85 294.8-1.83 293.47-0.8 291.27-0.15 289.07 0.5 286.42 0.5L286.42 0.5Q282.52 0.5 279.65-1.3 276.77-3.1 275.2-6.2 273.62-9.3 273.62-13.2L273.62-13.2Q273.62-17.15 275.27-20.23 276.92-23.3 279.87-25.1 282.82-26.9 286.67-26.9ZM312.97 0.5L312.97 0.5Q308.87 0.5 305.8-1.23 302.72-2.95 301.05-5.98 299.37-9 299.37-12.9L299.37-12.9Q299.37-17.3 301.15-20.43 302.92-23.55 305.8-25.23 308.67-26.9 311.87-26.9L311.87-26.9Q314.27-26.9 316.5-25.93 318.72-24.95 320.42-23.23 322.12-21.5 323.12-19.18 324.12-16.85 324.17-14.1L324.17-14.1Q324.12-13.1 323.37-12.45 322.62-11.8 321.62-11.8L321.62-11.8 302.22-11.8 301.02-16.05 319.82-16.05 318.87-15.15 318.87-16.4Q318.72-18.15 317.67-19.48 316.62-20.8 315.1-21.53 313.57-22.25 311.87-22.25L311.87-22.25Q310.37-22.25 308.97-21.78 307.57-21.3 306.52-20.25 305.47-19.2 304.82-17.48 304.17-15.75 304.17-13.2L304.17-13.2Q304.17-10.45 305.32-8.4 306.47-6.35 308.42-5.23 310.37-4.1 312.77-4.1L312.77-4.1Q314.57-4.1 315.77-4.48 316.97-4.85 317.77-5.4 318.57-5.95 319.17-6.45L319.17-6.45Q319.97-6.9 320.67-6.9L320.67-6.9Q321.57-6.9 322.17-6.28 322.77-5.65 322.77-4.8L322.77-4.8Q322.77-3.7 321.67-2.8L321.67-2.8Q320.32-1.5 317.95-0.5 315.57 0.5 312.97 0.5ZM334.97-34.45L334.97-2.55Q334.97-1.45 334.24-0.73 333.52 0 332.47 0L332.47 0Q331.42 0 330.69-0.73 329.97-1.45 329.97-2.55L329.97-2.55 329.97-34.45Q329.97-35.55 330.72-36.27 331.47-37 332.52-37L332.52-37Q333.62-37 334.29-36.27 334.97-35.55 334.97-34.45L334.97-34.45ZM347.82-34.45L347.82-2.55Q347.82-1.45 347.09-0.73 346.37 0 345.32 0L345.32 0Q344.27 0 343.54-0.73 342.82-1.45 342.82-2.55L342.82-2.55 342.82-34.45Q342.82-35.55 343.57-36.27 344.32-37 345.37-37L345.37-37Q346.47-37 347.14-36.27 347.82-35.55 347.82-34.45L347.82-34.45ZM366.76 0.5L366.76 0.5Q362.66 0.5 359.59-1.23 356.51-2.95 354.84-5.98 353.16-9 353.16-12.9L353.16-12.9Q353.16-17.3 354.94-20.43 356.71-23.55 359.59-25.23 362.46-26.9 365.66-26.9L365.66-26.9Q368.06-26.9 370.29-25.93 372.51-24.95 374.21-23.23 375.91-21.5 376.91-19.18 377.91-16.85 377.96-14.1L377.96-14.1Q377.91-13.1 377.16-12.45 376.41-11.8 375.41-11.8L375.41-11.8 356.01-11.8 354.81-16.05 373.61-16.05 372.66-15.15 372.66-16.4Q372.51-18.15 371.46-19.48 370.41-20.8 368.89-21.53 367.36-22.25 365.66-22.25L365.66-22.25Q364.16-22.25 362.76-21.78 361.36-21.3 360.31-20.25 359.26-19.2 358.61-17.48 357.96-15.75 357.96-13.2L357.96-13.2Q357.96-10.45 359.11-8.4 360.26-6.35 362.21-5.23 364.16-4.1 366.56-4.1L366.56-4.1Q368.36-4.1 369.56-4.48 370.76-4.85 371.56-5.4 372.36-5.95 372.96-6.45L372.96-6.45Q373.76-6.9 374.46-6.9L374.46-6.9Q375.36-6.9 375.96-6.28 376.56-5.65 376.56-4.8L376.56-4.8Q376.56-3.7 375.46-2.8L375.46-2.8Q374.11-1.5 371.74-0.5 369.36 0.5 366.76 0.5ZM396.91-26.9L396.91-26.9Q400.46-26.9 402.41-25.43 404.36-23.95 405.14-21.48 405.91-19 405.91-15.95L405.91-15.95 405.91-2.55Q405.91-1.45 405.19-0.73 404.46 0 403.41 0L403.41 0Q402.31 0 401.61-0.73 400.91-1.45 400.91-2.55L400.91-2.55 400.91-15.9Q400.91-17.7 400.41-19.13 399.91-20.55 398.69-21.43 397.46-22.3 395.26-22.3L395.26-22.3Q393.21-22.3 391.66-21.43 390.11-20.55 389.24-19.13 388.36-17.7 388.36-15.9L388.36-15.9 388.36-2.55Q388.36-1.45 387.64-0.73 386.91 0 385.86 0L385.86 0Q384.76 0 384.06-0.73 383.36-1.45 383.36-2.55L383.36-2.55 383.36-23.75Q383.36-24.85 384.06-25.58 384.76-26.3 385.86-26.3L385.86-26.3Q386.91-26.3 387.64-25.58 388.36-24.85 388.36-23.75L388.36-23.75 388.36-20.95 387.46-20.45Q387.81-21.55 388.69-22.68 389.56-23.8 390.81-24.78 392.06-25.75 393.61-26.33 395.16-26.9 396.91-26.9ZM424.31-26.9L424.31-26.9Q427.01-26.9 429.08-26.33 431.16-25.75 432.36-24.73 433.56-23.7 433.56-22.35L433.56-22.35Q433.56-21.5 433.03-20.78 432.51-20.05 431.56-20.05L431.56-20.05Q430.81-20.05 430.33-20.3 429.86-20.55 429.46-20.9 429.06-21.25 428.46-21.6L428.46-21.6Q427.91-21.9 426.83-22.1 425.76-22.3 424.91-22.3L424.91-22.3Q422.26-22.3 420.33-21.1 418.41-19.9 417.33-17.85 416.26-15.8 416.26-13.2L416.26-13.2Q416.26-10.6 417.33-8.55 418.41-6.5 420.28-5.3 422.16-4.1 424.66-4.1L424.66-4.1Q426.16-4.1 427.13-4.33 428.11-4.55 428.76-4.9L428.76-4.9Q429.56-5.35 430.06-5.83 430.56-6.3 431.51-6.3L431.51-6.3Q432.61-6.3 433.18-5.63 433.76-4.95 433.76-3.95L433.76-3.95Q433.76-2.85 432.43-1.83 431.11-0.8 428.91-0.15 426.71 0.5 424.06 0.5L424.06 0.5Q420.16 0.5 417.28-1.3 414.41-3.1 412.83-6.2 411.26-9.3 411.26-13.2L411.26-13.2Q411.26-17.15 412.91-20.23 414.56-23.3 417.51-25.1 420.46-26.9 424.31-26.9ZM450.61 0.5L450.61 0.5Q446.51 0.5 443.43-1.23 440.36-2.95 438.68-5.98 437.01-9 437.01-12.9L437.01-12.9Q437.01-17.3 438.78-20.43 440.56-23.55 443.43-25.23 446.31-26.9 449.51-26.9L449.51-26.9Q451.91-26.9 454.13-25.93 456.36-24.95 458.06-23.23 459.76-21.5 460.76-19.18 461.76-16.85 461.81-14.1L461.81-14.1Q461.76-13.1 461.01-12.45 460.26-11.8 459.26-11.8L459.26-11.8 439.86-11.8 438.66-16.05 457.46-16.05 456.51-15.15 456.51-16.4Q456.36-18.15 455.31-19.48 454.26-20.8 452.73-21.53 451.21-22.25 449.51-22.25L449.51-22.25Q448.01-22.25 446.61-21.78 445.21-21.3 444.16-20.25 443.11-19.2 442.46-17.48 441.81-15.75 441.81-13.2L441.81-13.2Q441.81-10.45 442.96-8.4 444.11-6.35 446.06-5.23 448.01-4.1 450.41-4.1L450.41-4.1Q452.21-4.1 453.41-4.48 454.61-4.85 455.41-5.4 456.21-5.95 456.81-6.45L456.81-6.45Q457.61-6.9 458.31-6.9L458.31-6.9Q459.21-6.9 459.81-6.28 460.41-5.65 460.41-4.8L460.41-4.8Q460.41-3.7 459.31-2.8L459.31-2.8Q457.96-1.5 455.58-0.5 453.21 0.5 450.61 0.5Z" opacity="1" transform="matrix(1,0,0,1,0,0)" fill="#000000" class="slogan-text-1" data-fill-palette-color="secondary" id="text-1"></path></svg></g></svg></g></svg></g></svg></g><g transform="matrix(1,0,0,1,138.07750425329473,0)"><svg viewBox="0 0 119.36499149341051 122.767519453729" height="122.767519453729" width="119.36499149341051"><g><svg xmlns="http://www.w3.org/2000/svg" xmlns:xlink="http://www.w3.org/1999/xlink" version="1.1" x="0" y="0" viewBox="1.3854691445134781 0 97.2289764461074 100.00051194216857" enable-background="new 0 0 100 100" xml:space="preserve" width="119.36499149341051" height="122.767519453729" class="icon-icon-0" data-fill-palette-color="accent" id="icon-0"><path fill-rule="evenodd" clip-rule="evenodd" d="M34.299 89.102C18.86 84.527-25.674 64.976 24.795 0c27.291 18.521 37.807 34.817 39.754 48.283-13.054 4.675-22.041 13.764-20.921 30.208-7.11-16.909-12.688-40.295-15.081-54.876C27.347 40.648 29.86 70.944 34.299 89.102z" fill="#000000" data-fill-palette-color="accent"></path><path fill-rule="evenodd" clip-rule="evenodd" d="M51.772 93.184C48.014 82.738 40.207 48.778 98.54 50.65c1.712 53.348-26.544 51.379-39.376 47.778 5.312-10.34 12.15-19.672 20.803-27.551C69.352 76.754 59.899 84.209 51.772 93.184z" fill="#000000" data-fill-palette-color="accent"></path></svg></g></svg></g><g></g></svg></g></svg></g><defs></defs></svg><rect width="395.52" height="225.73349559808017" fill="none" stroke="none" visibility="hidden"></rect></g></svg></g></svg>